<svg width="581" height="441" xmlns="http://www.w3.org/2000/svg">
 <defs>
  <style type="text/css">
   <![CDATA[
    .str1 {stroke:#373435;stroke-width:0.755906}
    .str0 {stroke:#ED3237;stroke-width:1.99975;stroke-dasharray:9.998744 1.999749}
    .str2 {stroke:#373435;stroke-width:0.755906;stroke-dasharray:0.755906 0.755906}
    .fil2 {fill:none}
    .fil5 {fill:#373435}
    .fil3 {fill:#323232}
    .fil1 {fill:#96989A;fill-rule:nonzero}
    .fil4 {fill:#373435;fill-rule:nonzero}
    .fil0 {fill:#ED3237;fill-opacity:0.109804}
   ]]>
  </style>
 </defs>
 <g>
  <title>background</title>
  <rect fill="none" id="canvas_background" height="443" width="583" y="-1" x="-1"/>
 </g>
 <g>
  <title>Layer 1</title>
  <g id="Camada_x0020_1">
   <metadata transform="translate(0,-1) translate(0,1) translate(-1,0) translate(-1,0) " id="CorelCorpID_0Corel-Layer"/>
   <polygon id="svg_1" points="64,387 562,385 563,18 " class="fil0"/>
   <polygon id="svg_2" points="271,434 264,434 264,432 266,432 266,425 264,426 264,424 269,423 269,432 271,432 " class="fil1"/>
   <polygon points="280,430 276,430 276,429 280,429 " class="fil1" id="1"/>
   <path d="m286,433l0,-2c1,0 1,0 1,1c1,0 1,0 2,0c0,0 0,0 1,0c0,0 0,0 0,0c0,0 0,-1 1,-1c0,0 0,0 0,0c0,0 0,-1 0,-1c-1,0 -1,0 -1,0c0,0 0,0 -1,0c0,-1 0,-1 -1,-1c0,0 -1,-1 -1,-1c-1,-1 -1,-1 -1,-2c0,0 0,-1 0,-1c1,-1 1,-1 1,-1c1,0 1,-1 2,-1c0,0 1,0 1,0c1,0 1,0 2,0c0,0 0,0 1,1l0,2c-1,0 -1,-1 -1,-1c0,0 0,0 -1,0c0,0 0,0 0,0c0,0 -1,0 -1,0c0,0 0,0 0,0c-1,0 -1,0 -1,0c0,0 0,0 0,1c0,0 -1,0 -1,0c0,0 1,0 1,0c0,1 0,1 0,1c0,0 0,0 1,0c0,0 0,0 0,1c1,0 1,0 2,0c0,0 0,1 0,1c1,0 1,0 1,1c0,0 0,0 0,1c0,0 0,1 0,1c0,1 -1,1 -1,1c0,0 -1,0 -1,1c-1,0 -1,0 -2,0c-1,0 -1,0 -2,0c0,-1 -1,-1 -1,-1z" class="fil1" id="2"/>
   <path d="m297,433l0,0l0,4l-2,0l0,-11l2,0l0,1l0,0c0,-1 1,-1 2,-1c1,0 2,0 2,1c1,1 1,2 1,3c0,1 0,2 -1,3c0,0 -1,1 -2,1c-1,0 -2,-1 -2,-1zm0,-3l0,0c0,1 0,1 0,2c0,0 1,0 1,0c1,0 1,0 1,-1c1,0 1,-1 1,-1c0,-2 -1,-2 -2,-2c0,0 0,0 -1,0c0,1 0,1 0,2z" class="fil1" id="3"/>
   <path d="m310,431l-5,0c1,1 1,1 2,1c1,0 2,0 3,0l0,1c-1,1 -2,1 -3,1c-1,0 -2,-1 -3,-1c0,-1 -1,-2 -1,-3c0,-1 1,-2 1,-3c1,-1 2,-1 3,-1c1,0 2,0 2,1c1,1 1,1 1,3l0,1zm-2,-2c0,-1 0,-1 -1,-1c0,0 -1,0 -1,0c0,0 0,1 -1,1l3,0z" class="fil1" id="4"/>
   <path d="m317,433c0,1 -1,1 -2,1c-1,0 -2,-1 -3,-1c0,-1 -1,-2 -1,-3c0,-1 1,-2 1,-3c1,-1 2,-1 3,-1c1,0 2,0 2,0l0,2c0,0 -1,0 -1,0c-1,0 -2,0 -2,0c0,1 -1,1 -1,2c0,1 1,1 1,1c0,1 1,1 2,1c0,0 1,0 1,-1l0,2z" class="fil1" id="5"/>
   <path d="m320,425c-1,0 -1,0 -1,0c0,-1 -1,-1 -1,-1c0,0 1,-1 1,-1c0,0 0,0 1,0c0,0 0,0 1,0c0,0 0,1 0,1c0,0 0,1 0,1c-1,0 -1,0 -1,0zm1,9l-2,0l0,-8l2,0l0,8z" class="fil1" id="6"/>
   <path d="m328,424c-1,0 -1,0 -1,0c-1,0 -1,1 -1,1l0,1l1,0l0,2l-1,0l0,6l-3,0l0,-6l-1,0l0,-2l1,0l0,-1c0,-1 1,-1 1,-2c1,0 2,0 2,0c1,0 1,0 2,0l0,1z" class="fil1" id="7"/>
   <path d="m330,425c-1,0 -1,0 -1,0c-1,-1 -1,-1 -1,-1c0,0 0,-1 1,-1c0,0 0,0 1,0c0,0 0,0 1,0c0,0 0,1 0,1c0,0 0,1 0,1c-1,0 -1,0 -1,0zm1,9l-3,0l0,-8l3,0l0,8z" class="fil1" id="8"/>
   <path d="m338,433c0,1 -1,1 -2,1c-1,0 -2,-1 -3,-1c0,-1 -1,-2 -1,-3c0,-1 1,-2 1,-3c1,-1 2,-1 3,-1c1,0 2,0 2,0l0,2c0,0 -1,0 -1,0c-1,0 -2,0 -2,0c0,1 -1,1 -1,2c0,1 1,1 1,1c0,1 1,1 2,1c0,0 1,0 1,-1l0,2z" class="fil1" id="9"/>
   <path d="m341,425c-1,0 -1,0 -1,0c0,-1 -1,-1 -1,-1c0,0 1,-1 1,-1c0,0 0,0 1,0c0,0 0,0 1,0c0,0 0,1 0,1c0,0 0,1 0,1c-1,0 -1,0 -1,0zm1,9l-2,0l0,-8l2,0l0,8z" class="fil1" id="10"/>
   <path d="m348,433c0,1 -1,1 -1,1c-2,0 -3,-1 -3,-3l0,-3l-1,0l0,-2l1,0l0,-1l3,-1l0,2l1,0l0,2l-1,0l0,3c0,1 0,1 1,1c0,0 0,0 0,0l0,1z" class="fil1" id="11"/>
   <path d="m357,426l-3,8c-1,2 -2,3 -4,3c0,0 -1,0 -1,0l0,-2c0,0 1,0 1,0c0,0 1,0 1,-1l1,0l-3,-8l2,0l1,5c0,0 1,0 1,1l0,0c0,-1 0,-1 0,-1l1,-5l3,0z" class="fil1" id="12"/>
   <line id="svg_3" y2="18" x2="563" y1="391" x1="58" class="fil2 str0"/>
   <path id="svg_4" d="m17,239l-2,0c0,0 0,-1 1,-1c0,-1 0,-1 0,-2c0,0 0,0 0,-1c0,0 0,0 0,0c0,0 -1,0 -1,0c0,0 0,0 0,0c0,0 -1,0 -1,0c0,0 0,0 0,0c0,0 0,1 0,1c-1,0 -1,0 -1,1c0,1 -1,1 -1,2c-1,0 -1,0 -2,0c0,0 -1,0 -1,0c-1,0 -1,-1 -1,-1c0,0 -1,-1 -1,-1c0,-1 0,-1 0,-2c0,0 0,-1 0,-1c0,-1 0,-1 1,-1l2,0c0,0 -1,0 -1,0c0,0 0,1 0,1c0,0 0,0 0,0c0,1 0,1 0,1c0,0 0,0 0,1c0,0 0,0 0,0c0,0 0,0 1,1c0,0 0,0 0,0c0,0 0,0 0,0c1,-1 1,-1 1,-1c0,0 0,0 0,0c0,-1 0,-1 1,-1c0,-1 0,-1 0,-1c0,-1 1,-1 1,-1c0,0 0,-1 1,-1c0,0 0,0 1,0c0,0 1,0 1,0c1,1 1,1 1,1c0,1 0,1 1,2c0,0 0,1 0,1c0,1 0,1 0,2c-1,0 -1,1 -1,1z" class="fil1"/>
   <path d="m15,224l0,5c1,0 1,-1 1,-2c0,-1 0,-2 0,-2l1,0c1,0 1,1 1,2c0,1 -1,2 -1,3c-1,1 -2,1 -3,1c-1,0 -2,0 -3,-1c-1,-1 -1,-2 -1,-3c0,-1 0,-2 1,-2c1,-1 1,-1 3,-1l1,0zm-2,2c-1,0 -1,1 -1,1c0,1 0,1 0,1c0,1 1,1 1,1l0,-3z" class="fil1" id="1"/>
   <path d="m18,216l0,2l-5,0c-1,0 -1,0 -1,1c0,0 0,1 0,1c1,0 1,0 1,0l5,0l0,3l-8,0l0,-3l1,0l0,0c-1,0 -1,-1 -1,-2c0,-2 1,-2 3,-2l5,0z" class="fil1" id="2"/>
   <path d="m17,214l-1,0c0,0 0,0 0,-1c0,0 0,-1 0,-1c0,0 0,-1 0,-1c0,0 0,0 0,0c-1,0 -1,0 -1,0c0,0 0,0 0,0c0,1 0,1 0,1c0,0 0,0 0,0c-1,1 -1,1 -1,1c0,0 0,1 0,1c0,0 -1,0 -1,0c0,0 0,0 -1,0c0,0 0,0 -1,0c0,0 0,0 0,-1c-1,0 -1,0 -1,-1c0,0 0,-1 0,-1c0,0 0,-1 0,-1c0,0 0,-1 0,-1l2,0c0,0 0,1 0,1c0,0 0,1 0,1c0,0 0,0 0,0c0,1 0,1 0,1c0,0 0,0 0,0c0,0 0,0 0,0c0,0 0,0 1,0c0,0 0,0 0,0c0,-1 0,-1 0,-1c0,0 0,0 0,0c0,-1 0,-1 0,-1c1,0 1,-1 1,-1c0,0 0,0 1,0c0,0 0,0 0,0c1,0 1,0 1,0c1,0 1,0 1,1c0,0 1,0 1,1c0,0 0,1 0,1c0,1 0,2 -1,2z" class="fil1" id="3"/>
   <path d="m9,206c0,1 0,1 0,1c-1,0 -1,1 -1,1c0,0 -1,-1 -1,-1c0,0 0,0 0,-1c0,0 0,0 0,-1c0,0 1,0 1,0c0,0 1,0 1,0c0,1 0,1 0,1zm9,-1l0,2l-8,0l0,-2l8,0z" class="fil1" id="4"/>
   <path d="m17,199c1,0 1,1 1,1c0,2 -1,3 -3,3l-3,0l0,1l-2,0l0,-1l-1,0l-1,-3l2,0l0,-1l2,0l0,1l3,0c1,0 1,0 1,-1c0,0 0,0 0,0l1,0z" class="fil1" id="5"/>
   <path d="m9,196c0,1 0,1 0,1c-1,1 -1,1 -1,1c0,0 -1,0 -1,-1c0,0 0,0 0,-1c0,0 0,0 0,-1c0,0 1,0 1,0c0,0 1,0 1,0c0,1 0,1 0,1zm9,-1l0,2l-8,0l0,-2l8,0z" class="fil1" id="6"/>
   <path d="m10,186l8,3l0,3l-8,2l0,-2l5,-1c0,-1 1,-1 1,-1l0,0c0,0 -1,0 -1,0l-5,-1l0,-3z" class="fil1" id="7"/>
   <path d="m9,184c0,1 0,1 0,1c-1,0 -1,1 -1,1c0,0 -1,-1 -1,-1c0,0 0,0 0,-1c0,0 0,0 0,-1c0,0 1,0 1,0c0,0 1,0 1,0c0,1 0,1 0,1zm9,-1l0,2l-8,0l0,-2l8,0z" class="fil1" id="8"/>
   <path d="m17,177c1,0 1,1 1,1c0,2 -1,3 -3,3l-3,0l0,1l-2,0l0,-1l-1,0l-1,-3l2,0l0,-1l2,0l0,1l3,0c1,0 1,0 1,-1c0,0 0,0 0,0l1,0z" class="fil1" id="9"/>
   <path d="m10,169l8,2c2,1 3,2 3,4c0,0 0,1 0,1l-2,0c0,0 0,-1 0,-1c0,0 0,-1 -1,-1l0,-1l-8,3l0,-2l5,-1c0,0 0,-1 1,-1l0,0c-1,0 -1,0 -1,0l-5,-1l0,-2z" class="fil1" id="10"/>
   <rect id="svg_5" ry="2" rx="1" height="9.7784" width="4.27767" y="384" x="108" class="fil3 str1"/>
   <rect id="svg_6" ry="2" rx="1" height="9.7784" width="4.27767" y="384" x="158" class="fil3 str1"/>
   <rect id="svg_7" ry="2" rx="1" height="9.7784" width="4.27767" y="384" x="209" class="fil3 str1"/>
   <rect id="svg_8" ry="2" rx="1" height="9.7784" width="4.27767" y="384" x="260" class="fil3 str1"/>
   <rect id="svg_9" ry="2" rx="1" height="9.7784" width="4.27767" y="384" x="310" class="fil3 str1"/>
   <rect id="svg_10" ry="2" rx="1" height="9.7784" width="4.27767" y="384" x="361" class="fil3 str1"/>
   <rect id="svg_11" ry="2" rx="1" height="9.7784" width="4.27767" y="384" x="411" class="fil3 str1"/>
   <rect id="svg_12" ry="2" rx="1" height="9.7784" width="4.27767" y="384" x="462" class="fil3 str1"/>
   <rect id="svg_13" ry="2" rx="1" height="9.7784" width="4.27767" y="384" x="512" class="fil3 str1"/>
   <rect id="svg_14" ry="2" rx="1" height="9.7784" width="4.27767" y="384" x="563" class="fil3 str1"/>
   <rect x="0" y="-2.454391" id="svg_15" ry="2" rx="2" height="12" width="12" transform="matrix(9.44101e-15,-0.356472,0.814866,2.15814e-14,56.7217,356.054) " class="fil3 str1"/>
   <rect x="0" y="-2.454391" id="svg_16" ry="2" rx="2" height="12" width="12" transform="matrix(9.44101e-15,-0.356472,0.814866,2.15814e-14,56.7217,318.354) " class="fil3 str1"/>
   <rect x="0" y="-2.454391" id="svg_17" ry="2" rx="2" height="12" width="12" transform="matrix(9.44101e-15,-0.356472,0.814866,2.15814e-14,56.7217,280.653) " class="fil3 str1"/>
   <rect x="0" y="-2.454391" id="svg_18" ry="2" rx="2" height="12" width="12" transform="matrix(9.44101e-15,-0.356472,0.814866,2.15814e-14,56.7217,242.953) " class="fil3 str1"/>
   <rect x="0" y="-2.454391" id="svg_19" ry="2" rx="2" height="12" width="12" transform="matrix(9.44101e-15,-0.356472,0.814866,2.15814e-14,56.7217,205.253) " class="fil3 str1"/>
   <rect x="0" y="-2.454391" id="svg_20" ry="2" rx="2" height="12" width="12" transform="matrix(9.44101e-15,-0.356472,0.814866,2.15814e-14,56.7217,167.554) " class="fil3 str1"/>
   <rect x="0" y="-2.454391" id="svg_21" ry="2" rx="2" height="12" width="12" transform="matrix(9.44101e-15,-0.356472,0.814866,2.15814e-14,56.7217,129.854) " class="fil3 str1"/>
   <rect x="0" y="-2.454391" id="svg_22" ry="2" rx="2" height="12" width="12" transform="matrix(9.44101e-15,-0.356472,0.814866,2.15814e-14,56.7217,92.1536) " class="fil3 str1"/>
   <rect x="0" y="-2.454391" id="svg_23" ry="2" rx="2" height="12" width="12" transform="matrix(9.44101e-15,-0.356472,0.814866,2.15814e-14,56.7217,54.4536) " class="fil3 str1"/>
   <rect x="0" y="-2.454391" id="svg_24" ry="2" rx="2" height="12" width="12" transform="matrix(9.44101e-15,-0.356472,0.814866,2.15814e-14,56.7217,16.7535) " class="fil3 str1"/>
   <rect id="svg_25" ry="2" rx="2" height="9.7784" width="9.07918" y="386" x="54" class="fil3 str1"/>
   <path id="svg_26" d="m55,408c0,-2 0,-3 0,-3c1,-1 2,-1 3,-1c0,0 1,0 1,0c0,0 1,0 1,0c0,1 0,1 0,1c0,0 1,0 1,1c0,0 0,1 0,2c0,1 0,2 -1,3c0,0 -1,1 -2,1c-1,0 -1,-1 -2,-1c0,0 -1,0 -1,-1c0,0 0,0 0,-1c0,0 0,-1 0,-1zm2,0c0,1 0,1 0,2c0,0 0,0 1,0c0,0 0,0 0,0c0,0 1,-1 1,-1c0,0 0,-1 0,-1c0,-1 0,-2 -1,-2c0,-1 0,-1 0,-1c-1,0 -1,0 -1,1c0,0 0,1 0,2z" class="fil4"/>
   <path id="svg_27" d="m101,408c0,-2 0,-3 0,-3c1,-1 2,-1 3,-1c0,0 1,0 1,0c0,0 1,0 1,0c0,1 0,1 0,1c0,0 0,0 1,1c0,0 0,1 0,2c0,1 0,2 -1,3c0,0 -1,1 -2,1c-1,0 -2,-1 -2,-1c0,0 -1,0 -1,-1c0,0 0,0 0,-1c0,0 0,-1 0,-1zm2,0c0,1 0,1 0,2c0,0 0,0 1,0c0,0 0,0 0,0c0,0 0,-1 1,-1c0,0 0,-1 0,-1c0,-1 0,-2 -1,-2c0,-1 0,-1 0,-1c-1,0 -1,0 -1,1c0,0 0,1 0,2z" class="fil4"/>
   <polygon points="108,409 110,409 110,411 108,411 " class="fil4" id="1"/>
   <path d="m116,404l0,7l-2,0l0,-5c0,1 -1,1 -1,1c0,0 -1,0 -1,0l0,-1c0,-1 1,-1 1,-1c1,0 1,-1 1,-1l2,0z" class="fil4" id="2"/>
   <path id="svg_28" d="m150,408c0,-2 1,-3 1,-3c1,-1 2,-1 3,-1c0,0 1,0 1,0c0,0 0,0 1,0c0,1 0,1 0,1c0,0 0,0 0,1c1,0 1,1 1,2c0,1 -1,2 -1,3c-1,0 -1,1 -2,1c-1,0 -2,-1 -2,-1c0,0 -1,0 -1,-1c0,0 0,0 0,-1c-1,0 -1,-1 -1,-1zm3,0c0,1 0,1 0,2c0,0 0,0 1,0c0,0 0,0 0,0c0,0 0,-1 0,-1c1,0 1,-1 1,-1c0,-1 -1,-2 -1,-2c0,-1 0,-1 0,-1c-1,0 -1,0 -1,1c0,0 0,1 0,2z" class="fil4"/>
   <polygon points="158,409 160,409 160,411 158,411 " class="fil4" id="1"/>
   <path d="m167,411l-6,0c0,0 0,-1 1,-1c0,-1 1,-2 2,-2c0,-1 1,-1 1,-1c0,-1 0,-1 0,-1c0,0 0,0 0,-1c0,0 -1,0 -1,0c0,0 0,0 0,0c-1,1 -1,1 -1,1l-2,0c0,0 0,-1 1,-1c0,-1 0,-1 0,-1c1,0 1,0 2,0c1,0 1,0 2,0c0,0 1,0 1,1c0,0 0,0 0,1c0,0 0,1 0,1c0,1 -1,1 -2,2c0,0 0,0 -1,0c0,0 0,1 0,1l3,0l0,1z" class="fil4" id="2"/>
   <path id="svg_29" d="m201,408c0,-2 0,-3 1,-3c0,-1 1,-1 2,-1c1,0 1,0 1,0c1,0 1,0 1,0c0,1 1,1 1,1c0,0 0,0 0,1c0,0 0,1 0,2c0,1 0,2 0,3c-1,0 -2,1 -3,1c-1,0 -1,-1 -1,-1c-1,0 -1,0 -1,-1c-1,0 -1,0 -1,-1c0,0 0,-1 0,-1zm2,0c0,1 0,1 0,2c1,0 1,0 1,0c0,0 0,0 1,0c0,0 0,-1 0,-1c0,0 0,-1 0,-1c0,-1 0,-2 0,-2c0,-1 -1,-1 -1,-1c0,0 -1,0 -1,1c0,0 0,1 0,2z" class="fil4"/>
   <polygon points="208,409 211,409 211,411 208,411 " class="fil4" id="1"/>
   <path d="m214,406l-2,0c0,-1 0,-1 1,-2c0,0 1,0 2,0c1,0 1,0 2,0c0,1 0,1 0,2c0,0 0,0 0,1c0,0 0,0 -1,0c1,0 1,0 1,0c0,1 1,1 1,1c0,0 0,1 0,1c0,0 0,1 0,1c-1,1 -1,1 -1,1c-1,0 -1,1 -2,1c-1,0 -1,-1 -2,-1c0,0 -1,0 -1,0c0,-1 0,-1 0,-2l2,0c0,1 0,1 0,1c0,0 0,0 1,0c0,0 0,0 0,0c1,0 1,-1 1,-1c0,0 0,-1 -1,-1c0,0 0,0 0,0c0,0 -1,0 -1,0l0,-1c0,0 0,0 0,0c1,0 1,0 1,-1c0,0 0,0 0,0c0,0 0,-1 0,-1c0,0 0,0 0,0c-1,0 -1,0 -1,0c0,0 0,1 0,1z" class="fil4" id="2"/>
   <path id="svg_30" d="m251,408c0,-2 1,-3 1,-3c1,-1 2,-1 3,-1c0,0 1,0 1,0c0,0 0,0 1,0c0,1 0,1 0,1c0,0 0,0 0,1c1,0 1,1 1,2c0,1 -1,2 -1,3c0,0 -1,1 -2,1c-1,0 -2,-1 -2,-1c0,0 -1,0 -1,-1c0,0 0,0 0,-1c0,0 -1,-1 -1,-1zm3,0c0,1 0,1 0,2c0,0 0,0 1,0c0,0 0,0 0,0c0,0 0,-1 0,-1c1,0 1,-1 1,-1c0,-1 -1,-2 -1,-2c0,-1 0,-1 0,-1c-1,0 -1,0 -1,1c0,0 0,1 0,2z" class="fil4"/>
   <polygon points="259,409 261,409 261,411 259,411 " class="fil4" id="1"/>
   <path d="m266,410l-4,0l0,-2l4,-4l2,0l0,4l1,0l0,2l-1,0l0,1l-2,0l0,-1zm0,-2l0,-2l-2,2l2,0z" class="fil4" id="2"/>
   <path id="svg_31" d="m302,408c0,-2 0,-3 1,-3c0,-1 1,-1 2,-1c1,0 1,0 2,0c0,0 0,0 0,0c1,1 1,1 1,1c0,0 0,0 0,1c0,0 0,1 0,2c0,1 0,2 0,3c-1,0 -2,1 -3,1c0,0 -1,-1 -1,-1c-1,0 -1,0 -1,-1c0,0 -1,0 -1,-1c0,0 0,-1 0,-1zm2,0c0,1 0,1 1,2c0,0 0,0 0,0c0,0 1,0 1,0c0,0 0,-1 0,-1c0,0 0,-1 0,-1c0,-1 0,-2 0,-2c0,-1 0,-1 -1,-1c0,0 0,0 0,1c-1,0 -1,1 -1,2z" class="fil4"/>
   <polygon points="309,409 312,409 312,411 309,411 " class="fil4" id="1"/>
   <path d="m314,404l5,0l0,1l-4,0l0,2c0,0 1,-1 1,-1c0,0 0,0 0,0c1,0 2,1 2,1c1,0 1,1 1,2c0,0 0,1 0,1c-1,1 -1,1 -1,1c-1,0 -1,1 -2,1c-1,0 -1,0 -1,-1c-1,0 -1,0 -1,0c-1,0 -1,0 -1,-1c0,0 0,0 0,-1l2,0c0,1 0,1 0,1c0,0 1,0 1,0c0,0 0,0 1,0c0,0 0,-1 0,-1c0,-1 0,-1 0,-1c-1,0 -1,0 -1,0c0,0 -1,0 -1,0c0,0 0,0 0,0l-2,0l1,-4z" class="fil4" id="2"/>
   <path id="svg_32" d="m353,408c0,-2 0,-3 1,-3c0,-1 1,-1 2,-1c0,0 1,0 1,0c0,0 1,0 1,0c0,1 0,1 0,1c1,0 1,0 1,1c0,0 0,1 0,2c0,1 0,2 -1,3c0,0 -1,1 -2,1c-1,0 -1,-1 -2,-1c0,0 0,0 -1,-1c0,0 0,0 0,-1c0,0 0,-1 0,-1zm2,0c0,1 0,1 0,2c0,0 1,0 1,0c0,0 0,0 0,0c1,0 1,-1 1,-1c0,0 0,-1 0,-1c0,-1 0,-2 0,-2c-1,-1 -1,-1 -1,-1c-1,0 -1,0 -1,1c0,0 0,1 0,2z" class="fil4"/>
   <polygon points="360,409 362,409 362,411 360,411 " class="fil4" id="1"/>
   <path d="m369,406l-2,0c0,-1 0,-1 0,-1c0,0 0,0 0,0c-1,0 -1,0 -1,0c0,1 0,1 -1,2c1,0 1,0 1,0c1,-1 1,-1 1,-1c1,0 1,1 2,1c0,1 1,1 1,2c0,0 -1,1 -1,1c0,1 0,1 -1,1c0,0 -1,1 -1,1c-1,0 -2,-1 -2,-1c-1,0 -1,-1 -1,-1c-1,-1 -1,-1 -1,-2c0,-2 1,-3 1,-3c1,-1 2,-1 3,-1c0,0 1,0 1,0c0,0 1,0 1,0c0,1 0,1 0,2zm-3,3c0,0 0,1 0,1c0,0 0,0 1,0c0,0 0,0 0,0c1,0 1,-1 1,-1c0,0 0,-1 -1,-1c0,0 0,0 0,0c-1,0 -1,0 -1,0c0,0 0,0 0,1z" class="fil4" id="2"/>
   <path id="svg_33" d="m403,408c0,-2 1,-3 1,-3c1,-1 1,-1 3,-1c0,0 0,0 1,0c0,0 0,0 1,0c0,1 0,1 0,1c0,0 0,0 0,1c0,0 1,1 1,2c0,1 -1,2 -1,3c-1,0 -1,1 -3,1c0,0 -1,-1 -1,-1c0,0 -1,0 -1,-1c0,0 0,0 0,-1c-1,0 -1,-1 -1,-1zm2,0c0,1 1,1 1,2c0,0 0,0 0,0c1,0 1,0 1,0c0,0 0,-1 0,-1c0,0 0,-1 0,-1c0,-1 0,-2 0,-2c0,-1 0,-1 -1,-1c0,0 0,0 0,1c0,0 -1,1 -1,2z" class="fil4"/>
   <polygon points="411,409 413,409 413,411 411,411 " class="fil4" id="1"/>
   <path d="m414,404l6,0l0,1c0,1 -1,1 -1,2c-1,0 -1,1 -1,2c0,1 -1,2 -1,2l-2,0c0,-1 1,-2 1,-3c0,-1 1,-1 2,-2l-4,0l0,-2z" class="fil4" id="2"/>
   <path id="svg_34" d="m454,408c0,-2 0,-3 1,-3c0,-1 1,-1 2,-1c1,0 1,0 1,0c1,0 1,0 1,0c0,1 1,1 1,1c0,0 0,0 0,1c0,0 0,1 0,2c0,1 0,2 -1,3c0,0 -1,1 -2,1c-1,0 -1,-1 -2,-1c0,0 0,0 0,-1c-1,0 -1,0 -1,-1c0,0 0,-1 0,-1zm2,0c0,1 0,1 0,2c0,0 1,0 1,0c0,0 0,0 1,0c0,0 0,-1 0,-1c0,0 0,-1 0,-1c0,-1 0,-2 0,-2c0,-1 -1,-1 -1,-1c0,0 -1,0 -1,1c0,0 0,1 0,2z" class="fil4"/>
   <polygon points="461,409 463,409 463,411 461,411 " class="fil4" id="1"/>
   <path d="m466,407c-1,0 -1,0 -1,0c0,-1 0,-1 0,-1c0,-1 0,-1 1,-2c0,0 1,0 2,0c1,0 1,0 2,0c0,1 0,1 0,2c0,0 0,0 0,1c0,0 0,0 0,0c0,1 0,1 0,1c1,0 1,1 1,1c0,1 0,1 -1,1c0,1 0,1 0,1c0,0 -1,0 -1,0c-1,1 -1,1 -1,1c-1,0 -2,-1 -2,-1c-1,0 -1,0 -1,-1c0,0 0,0 0,-1c0,0 0,-1 0,-1c0,0 0,-1 1,-1zm1,-1c0,0 0,0 0,0c0,1 0,1 1,1c0,0 0,0 0,-1c0,0 0,0 0,0c0,0 0,-1 0,-1c0,0 0,0 0,0c-1,0 -1,0 -1,0c0,0 0,1 0,1zm0,3c0,0 0,1 0,1c0,0 0,0 1,0c0,0 0,0 0,0c1,0 1,-1 1,-1c0,0 0,-1 -1,-1c0,0 0,0 0,0c-1,0 -1,0 -1,0c0,0 0,1 0,1z" class="fil4" id="2"/>
   <path id="svg_35" d="m505,408c0,-2 0,-3 0,-3c1,-1 2,-1 3,-1c0,0 1,0 1,0c0,0 1,0 1,0c0,1 0,1 0,1c0,0 0,0 1,1c0,0 0,1 0,2c0,1 -1,2 -1,3c0,0 -1,1 -2,1c-1,0 -2,-1 -2,-1c0,0 -1,0 -1,-1c0,0 0,0 0,-1c0,0 0,-1 0,-1zm2,0c0,1 0,1 0,2c0,0 0,0 1,0c0,0 0,0 0,0c0,0 0,-1 1,-1c0,0 0,-1 0,-1c0,-1 0,-2 -1,-2c0,-1 0,-1 0,-1c-1,0 -1,0 -1,1c0,0 0,1 0,2z" class="fil4"/>
   <polygon points="512,409 514,409 514,411 512,411 " class="fil4" id="1"/>
   <path d="m515,410l2,-1c0,1 0,1 1,1c0,0 0,0 0,0c0,0 1,0 1,0c0,-1 0,-1 0,-2c0,0 0,1 -1,1c0,0 0,0 -1,0c0,0 -1,0 -1,-1c-1,0 -1,-1 -1,-2c0,0 0,-1 0,-1c1,0 1,-1 1,-1c1,0 1,0 2,0c1,0 1,0 2,0c0,0 1,1 1,1c0,1 0,2 0,3c0,1 0,2 -1,3c0,0 -1,1 -2,1c-1,0 -1,-1 -1,-1c-1,0 -1,0 -1,0c0,-1 -1,-1 -1,-1zm4,-4c0,0 0,0 0,-1c0,0 -1,0 -1,0c0,0 0,0 -1,0c0,1 0,1 0,1c0,1 0,1 0,1c1,0 1,1 1,1c0,0 1,-1 1,-1c0,0 0,0 0,-1z" class="fil4" id="2"/>
   <path id="svg_36" d="m566,404l0,8l-2,0l0,-6c-1,1 -1,1 -1,1c-1,0 -1,0 -2,1l0,-2c1,0 2,-1 2,-1c0,0 1,-1 1,-1l2,0z" class="fil4"/>
   <path id="svg_37" d="m30,354c0,-1 0,-2 0,-3c1,-1 2,-1 3,-1c0,0 1,0 1,0c0,0 1,1 1,1c0,0 0,0 0,0c0,1 1,1 1,1c0,1 0,1 0,2c0,1 0,2 -1,3c0,1 -1,1 -2,1c-1,0 -1,0 -2,0c0,0 -1,-1 -1,-1c0,0 0,-1 0,-1c0,-1 0,-1 0,-2zm2,0c0,1 0,2 0,2c0,0 0,1 1,1c0,0 0,0 0,-1c0,0 1,0 1,0c0,-1 0,-1 0,-2c0,-1 0,-2 0,-2c-1,0 -1,0 -1,0c-1,0 -1,0 -1,0c0,0 0,1 0,2z" class="fil4"/>
   <polygon points="37,356 39,356 39,358 37,358 " class="fil4" id="1"/>
   <path d="m45,350l0,8l-2,0l0,-5c0,0 -1,0 -1,0c0,1 -1,1 -1,1l0,-2c0,0 1,0 1,-1c1,0 1,0 1,-1l2,0z" class="fil4" id="2"/>
   <path id="svg_38" d="m29,316c0,-1 0,-2 1,-3c0,0 1,-1 2,-1c1,0 1,1 1,1c1,0 1,0 1,0c0,0 1,1 1,1c0,0 0,0 0,1c0,0 0,1 0,1c0,2 0,3 -1,3c0,1 -1,1 -2,1c-1,0 -1,0 -2,0c0,0 0,0 0,-1c-1,0 -1,-1 -1,-1c0,0 0,-1 0,-2zm2,0c0,1 0,2 0,2c0,1 1,1 1,1c0,0 0,0 1,0c0,0 0,-1 0,-1c0,0 0,-1 0,-2c0,-1 0,-1 0,-2c0,0 -1,0 -1,0c0,0 -1,0 -1,0c0,1 0,1 0,2z" class="fil4"/>
   <polygon points="36,318 39,318 39,320 36,320 " class="fil4" id="1"/>
   <path d="m46,320l-7,0c1,0 1,-1 1,-2c0,0 1,-1 2,-1c1,-1 1,-1 1,-2c1,0 1,0 1,0c0,0 0,-1 -1,-1c0,0 0,0 0,0c-1,0 -1,0 -1,0c0,0 0,1 0,1l-2,0c0,-1 0,-1 0,-1c0,-1 1,-1 1,-1c0,0 1,-1 2,-1c0,0 1,1 1,1c1,0 1,0 1,1c1,0 1,0 1,1c0,0 0,1 -1,1c0,0 0,1 -1,1c-1,1 -1,1 -1,1c0,0 0,0 -1,1l4,0l0,1z" class="fil4" id="2"/>
   <path id="svg_39" d="m29,279c0,-2 0,-3 1,-3c0,-1 1,-1 2,-1c1,0 1,0 1,0c1,0 1,0 1,0c0,1 1,1 1,1c0,0 0,1 0,1c0,0 0,1 0,2c0,1 0,2 -1,3c0,0 -1,1 -2,1c-1,0 -1,0 -2,-1c0,0 0,0 0,-1c-1,0 -1,0 -1,-1c0,0 0,-1 0,-1zm2,0c0,1 0,1 0,2c0,0 1,0 1,0c0,0 0,0 1,0c0,0 0,0 0,-1c0,0 0,-1 0,-1c0,-1 0,-2 0,-2c0,-1 -1,-1 -1,-1c0,0 -1,0 -1,1c0,0 0,1 0,2z" class="fil4"/>
   <polygon points="36,280 39,280 39,283 36,283 " class="fil4" id="1"/>
   <path d="m42,277l-2,0c0,-1 0,-1 1,-2c0,0 1,0 2,0c1,0 1,0 2,0c0,1 0,1 0,2c0,0 0,0 0,1c0,0 0,0 -1,0c1,0 1,1 1,1c0,0 0,0 1,0c0,0 0,1 0,1c0,1 0,1 -1,1c0,1 0,1 -1,1c0,1 -1,1 -1,1c-1,0 -1,0 -2,-1c0,0 -1,0 -1,0c0,-1 0,-1 0,-1l2,-1c0,1 0,1 0,1c0,0 0,0 1,0c0,0 0,0 0,0c1,0 1,0 1,-1c0,0 0,0 -1,-1c0,0 0,0 0,0c0,0 -1,0 -1,0l0,-1c0,0 0,0 0,0c1,0 1,0 1,0c0,-1 0,-1 0,-1c0,0 0,-1 0,-1c0,0 0,0 0,0c-1,0 -1,0 -1,0c0,0 0,1 0,1z" class="fil4" id="2"/>
   <path id="svg_40" d="m29,241c0,-1 0,-2 1,-3c0,-1 1,-1 2,-1c1,0 1,0 1,0c1,0 1,1 1,1c0,0 0,0 1,0c0,1 0,1 0,1c0,1 0,1 0,2c0,1 0,2 -1,3c0,1 -1,1 -2,1c-1,0 -1,0 -2,0c0,0 0,-1 -1,-1c0,0 0,-1 0,-1c0,-1 0,-1 0,-2zm2,0c0,1 0,2 0,2c0,0 1,1 1,1c0,0 0,-1 0,-1c1,0 1,0 1,0c0,-1 0,-1 0,-2c0,-1 0,-2 0,-2c0,0 -1,0 -1,0c0,0 -1,0 -1,0c0,0 0,1 0,2z" class="fil4"/>
   <polygon points="36,243 38,243 38,245 36,245 " class="fil4" id="1"/>
   <path d="m43,243l-4,0l0,-1l4,-5l2,0l0,5l1,0l0,1l-1,0l0,2l-2,0l0,-2zm0,-1l0,-3l-2,3l2,0z" class="fil4" id="2"/>
   <path id="svg_41" d="m29,203c0,-1 0,-2 1,-3c0,0 1,-1 2,-1c1,0 1,1 1,1c1,0 1,0 1,0c0,0 1,1 1,1c0,0 0,0 0,1c0,0 0,1 0,1c0,2 0,3 -1,3c0,1 -1,1 -2,1c-1,0 -1,0 -1,0c-1,0 -1,0 -1,-1c-1,0 -1,-1 -1,-1c0,-1 0,-1 0,-2zm2,0c0,1 0,2 0,2c0,1 1,1 1,1c0,0 0,0 1,0c0,0 0,-1 0,-1c0,0 0,-1 0,-2c0,-1 0,-1 0,-2c0,0 -1,0 -1,0c0,0 -1,0 -1,0c0,1 0,1 0,2z" class="fil4"/>
   <polygon points="36,205 38,205 38,207 36,207 " class="fil4" id="1"/>
   <path d="m40,200l5,0l0,1l-3,0l0,1c0,0 0,0 1,0c0,0 0,0 0,0c1,0 2,0 2,1c1,0 1,1 1,2c0,0 0,0 -1,1c0,0 0,1 -1,1c0,0 -1,0 -1,0c-1,0 -1,0 -2,0c0,0 0,0 -1,0c0,0 0,-1 0,-1c0,0 0,0 -1,-1l3,0c0,0 0,1 0,1c0,0 0,0 1,0c0,0 0,0 0,0c1,-1 1,-1 1,-1c0,-1 0,-1 -1,-1c0,-1 0,-1 0,-1c-1,0 -1,0 -1,1c0,0 0,0 0,0l-2,0l0,-4z" class="fil4" id="2"/>
   <path id="svg_42" d="m29,166c0,-2 0,-3 1,-3c0,-1 1,-1 2,-1c1,0 1,0 1,0c1,0 1,0 1,0c0,1 1,1 1,1c0,0 0,1 0,1c0,0 0,1 0,2c0,1 0,2 -1,3c0,0 -1,1 -2,1c-1,0 -1,0 -2,-1c0,0 0,0 0,-1c-1,0 -1,0 -1,-1c0,0 0,-1 0,-1zm2,0c0,1 0,1 0,2c0,0 1,0 1,0c0,0 0,0 1,0c0,0 0,0 0,-1c0,0 0,-1 0,-1c0,-1 0,-2 0,-2c0,-1 -1,-1 -1,-1c0,0 -1,0 -1,1c0,0 0,1 0,2z" class="fil4"/>
   <polygon points="36,167 38,167 38,170 36,170 " class="fil4" id="1"/>
   <path d="m46,164l-2,0c-1,0 -1,-1 -1,-1c0,0 0,0 0,0c-1,0 -1,0 -1,1c0,0 0,0 0,1c0,0 0,0 0,0c1,-1 1,-1 1,-1c1,0 2,1 2,1c1,1 1,1 1,2c0,1 0,1 -1,1c0,1 0,1 -1,1c0,1 0,1 -1,1c-1,0 -1,0 -2,-1c0,0 -1,0 -1,-1c0,-1 0,-1 0,-2c0,-2 0,-3 0,-3c1,-1 2,-1 3,-1c0,0 1,0 1,0c1,0 1,0 1,1c0,0 1,0 1,1zm-4,3c0,0 0,1 0,1c0,0 1,0 1,0c0,0 0,0 1,0c0,0 0,-1 0,-1c0,0 0,-1 0,-1c-1,0 -1,0 -1,0c0,0 -1,0 -1,0c0,0 0,1 0,1z" class="fil4" id="2"/>
   <path id="svg_43" d="m29,128c0,-1 0,-2 1,-3c0,-1 1,-1 2,-1c1,0 1,0 1,0c1,0 1,1 1,1c0,0 1,0 1,0c0,1 0,1 0,1c0,1 0,1 0,2c0,1 0,2 -1,3c0,1 -1,1 -2,1c-1,0 -1,0 -1,0c-1,-1 -1,-1 -1,-1c-1,-1 -1,-1 -1,-1c0,-1 0,-1 0,-2zm2,0c0,1 0,2 0,2c1,0 1,1 1,1c0,0 0,-1 1,-1c0,0 0,0 0,0c0,-1 0,-1 0,-2c0,-1 0,-2 0,-2c0,0 -1,-1 -1,-1c0,0 -1,1 -1,1c0,0 0,1 0,2z" class="fil4"/>
   <polygon points="36,130 39,130 39,132 36,132 " class="fil4" id="1"/>
   <path d="m40,124l6,0l0,2c-1,0 -1,1 -2,1c0,1 0,2 -1,3c0,0 0,1 0,2l-2,0c0,-1 0,-2 1,-3c0,-1 1,-2 1,-3l-3,0l0,-2z" class="fil4" id="2"/>
   <path id="svg_44" d="m29,90c0,-1 0,-2 1,-3c0,0 1,-1 2,-1c1,0 1,0 1,1c1,0 1,0 1,0c0,0 1,1 1,1c0,0 0,0 0,1c0,0 0,1 0,1c0,2 0,3 -1,3c0,1 -1,1 -2,1c-1,0 -1,0 -1,0c-1,0 -1,-1 -1,-1c-1,0 -1,-1 -1,-1c0,-1 0,-1 0,-2zm2,0c0,1 0,2 0,2c0,1 1,1 1,1c0,0 0,0 1,0c0,-1 0,-1 0,-1c0,0 0,-1 0,-2c0,-1 0,-1 0,-2c0,0 -1,0 -1,0c0,0 -1,0 -1,0c0,1 0,1 0,2z" class="fil4"/>
   <polygon points="36,92 39,92 39,94 36,94 " class="fil4" id="1"/>
   <path d="m41,90c0,0 -1,0 -1,-1c0,0 0,0 0,-1c0,0 0,-1 1,-1c0,0 1,-1 2,-1c1,0 1,1 2,1c0,0 1,1 1,1c0,1 -1,1 -1,1c0,1 0,1 0,1c0,0 0,1 0,1c1,0 1,1 1,1c0,0 0,1 0,1c-1,0 -1,1 -1,1c0,0 -1,0 -1,0c0,0 -1,0 -1,0c-1,0 -2,0 -2,0c-1,0 -1,0 -1,-1c0,0 0,-1 0,-1c0,-1 0,-1 0,-1c0,-1 0,-1 1,-1zm1,-1c0,0 0,0 0,0c0,0 0,0 1,0c0,0 0,0 0,0c0,0 1,0 1,0c0,-1 -1,-1 -1,-1c0,0 0,0 0,0c-1,0 -1,0 -1,0c0,0 0,0 0,1zm0,3c0,0 0,0 0,1c0,0 0,0 1,0c0,0 0,0 0,0c1,-1 1,-1 1,-1c0,0 0,-1 -1,-1c0,0 0,0 0,0c-1,0 -1,0 -1,0c0,0 0,0 0,1z" class="fil4" id="2"/>
   <path id="svg_45" d="m29,53c0,-2 0,-3 1,-3c0,-1 1,-1 2,-1c1,0 1,0 1,0c1,0 1,0 1,0c0,1 1,1 1,1c0,0 0,1 0,1c0,0 0,1 0,2c0,1 0,2 -1,3c0,0 -1,1 -2,1c-1,0 -1,0 -1,-1c-1,0 -1,0 -1,-1c-1,0 -1,0 -1,-1c0,0 0,-1 0,-1zm2,0c0,1 0,1 0,2c1,0 1,0 1,0c0,0 0,0 1,0c0,0 0,0 0,-1c0,0 0,-1 0,-1c0,-1 0,-2 0,-2c0,-1 -1,-1 -1,-1c0,0 -1,0 -1,1c0,0 0,1 0,2z" class="fil4"/>
   <polygon points="36,54 39,54 39,56 36,56 " class="fil4" id="1"/>
   <path d="m40,55l2,0c0,0 0,0 0,0c0,0 0,0 1,0c0,0 0,0 0,0c0,0 1,-1 1,-2c-1,0 -1,1 -1,1c0,0 -1,0 -1,0c-1,0 -1,0 -2,-1c0,0 0,-1 0,-2c0,0 0,-1 0,-1c0,0 0,-1 1,-1c0,0 1,0 1,0c1,0 2,0 2,0c1,0 1,1 1,1c1,1 1,2 1,3c0,1 -1,2 -1,3c-1,0 -1,1 -2,1c-1,0 -2,0 -2,-1c0,0 -1,0 -1,0c0,0 0,-1 0,-1zm4,-4c0,0 -1,0 -1,-1c0,0 0,0 -1,0c0,0 0,0 0,0c0,1 0,1 0,1c0,1 0,1 0,1c0,1 0,1 1,1c0,0 0,0 0,-1c0,0 1,0 1,-1z" class="fil4" id="2"/>
   <path id="svg_46" d="m40,11l0,8l-3,0l0,-5c0,0 0,0 -1,0c0,1 0,1 -1,1l0,-2c1,0 1,0 2,-1c0,0 1,0 1,-1l2,0z" class="fil4"/>
   <polygon id="svg_47" points="58,14 62,14 62,387 566,386 566,391 58,391 " class="fil5 str1"/>
   <line id="svg_48" y2="15" x2="110" y1="390" x1="110" class="fil2 str2"/>
   <line id="svg_49" y2="15" x2="161" y1="390" x1="161" class="fil2 str2"/>
   <line id="svg_50" y2="15" x2="212" y1="390" x1="212" class="fil2 str2"/>
   <line id="svg_51" y2="15" x2="262" y1="390" x1="262" class="fil2 str2"/>
   <line id="svg_52" y2="15" x2="313" y1="390" x1="313" class="fil2 str2"/>
   <line id="svg_53" y2="15" x2="363" y1="390" x1="363" class="fil2 str2"/>
   <line id="svg_54" y2="15" x2="414" y1="390" x1="414" class="fil2 str2"/>
   <line id="svg_55" y2="15" x2="464" y1="390" x1="464" class="fil2 str2"/>
   <line id="svg_56" y2="15" x2="515" y1="390" x1="515" class="fil2 str2"/>
   <line id="svg_57" y2="53" x2="566" y1="52" x1="60" class="fil2 str1"/>
   <line id="svg_58" y2="91" x2="566" y1="90" x1="60" class="fil2 str1"/>
   <line id="svg_59" y2="128" x2="566" y1="127" x1="60" class="fil2 str1"/>
   <line id="svg_60" y2="166" x2="566" y1="165" x1="60" class="fil2 str1"/>
   <line id="svg_61" y2="203" x2="566" y1="202" x1="60" class="fil2 str1"/>
   <line id="svg_62" y2="241" x2="566" y1="240" x1="60" class="fil2 str1"/>
   <line id="svg_63" y2="278" x2="566" y1="277" x1="60" class="fil2 str1"/>
   <line id="svg_64" y2="316" x2="566" y1="315" x1="60" class="fil2 str1"/>
   <line id="svg_65" y2="353" x2="566" y1="353" x1="60" class="fil2 str1"/>
  </g>
 </g>
</svg>